<?xml version="1.0" encoding="UTF-8" standalone="no"?>
<svg
   xmlns:dc="http://purl.org/dc/elements/1.1/"
   xmlns:cc="http://creativecommons.org/ns#"
   xmlns:rdf="http://www.w3.org/1999/02/22-rdf-syntax-ns#"
   xmlns:svg="http://www.w3.org/2000/svg"
   xmlns="http://www.w3.org/2000/svg"
   xmlns:sodipodi="http://sodipodi.sourceforge.net/DTD/sodipodi-0.dtd"
   xmlns:inkscape="http://www.inkscape.org/namespaces/inkscape"
   viewBox="0 0 288 264"
   version="1.1"
   id="svg8"
   sodipodi:docname="surface_logo.svg"
   inkscape:version="0.92.1 r15371">
  <metadata
     id="metadata14">
    <rdf:RDF>
      <cc:Work
         rdf:about="">
        <dc:format>image/svg+xml</dc:format>
        <dc:type
           rdf:resource="http://purl.org/dc/dcmitype/StillImage" />
      </cc:Work>
    </rdf:RDF>
  </metadata>
  <defs
     id="defs12" />
  <sodipodi:namedview
     pagecolor="#ffffff"
     bordercolor="#666666"
     borderopacity="1"
     objecttolerance="10"
     gridtolerance="10"
     guidetolerance="10"
     inkscape:pageopacity="0"
     inkscape:pageshadow="2"
     inkscape:window-width="1920"
     inkscape:window-height="1001"
     id="namedview10"
     showgrid="false"
     inkscape:zoom="0.89393939"
     inkscape:cx="-42.81356"
     inkscape:cy="132"
     inkscape:window-x="-9"
     inkscape:window-y="-9"
     inkscape:window-maximized="1"
     inkscape:current-layer="svg8" />
  <g
     fill-rule="evenodd"
     id="g6"
     style="fill:#ffffff;fill-opacity:1">
    <path
       d="M115.5 36.848v190.304L253.03 132 115.5 36.848zM282.112 142.28l-172 119c-8.29 5.736-19.612-.198-19.612-10.28V13c0-10.082 11.321-16.016 19.612-10.28l172 119c7.184 4.97 7.184 15.59 0 20.56z"
       fill-rule="nonzero"
       id="path2"
       style="fill:#ffffff;fill-opacity:1" />
    <path
       d="M42.5 107h107a8 8 0 1 0 0-16h-107a8 8 0 1 0 0 16zm0 70h107a8 8 0 1 0 0-16h-107a8 8 0 1 0 0 16zM8 143h168a8 8 0 1 0 0-16H8a8 8 0 1 0 0 16z"
       fill-rule="nonzero"
       stroke-linecap="round"
       stroke-linejoin="round"
       id="path4"
       style="fill:#ffffff;fill-opacity:1" />
  </g>
</svg>
